REM DIRINDEX 1\2,1\3,1\4,1\5
REM DIRNAME "folder01","folder02","folder03","folder04","folder05"
TITLE ""
FILE "1Q_t_0639-0648.mp3" MP3
  TRACK 01 AUDIO
    TITLE "3:cjc172_2855"
    INDEX 01 00:00:00
  TRACK 02 AUDIO
    TITLE "0:"
    INDEX 01 00:01:23
  TRACK 03 AUDIO
    TITLE "4:cjc172_2856"
    INDEX 01 00:01:33
  TRACK 04 AUDIO
    TITLE "0:"
    INDEX 01 00:03:40
  TRACK 05 AUDIO
    TITLE "5:cjc172_2857"
    INDEX 01 00:03:48
  TRACK 06 AUDIO
    TITLE "0:"
    INDEX 01 00:09:27
  TRACK 07 AUDIO
    TITLE "3:cjc172_2858"
    INDEX 01 00:09:74
  TRACK 08 AUDIO
    TITLE "0:"
    INDEX 01 00:11:36
  TRACK 09 AUDIO
    TITLE "4:cjc172_2859"
    INDEX 01 00:11:45
  TRACK 10 AUDIO
    TITLE "0:"
    INDEX 01 00:12:53
  TRACK 11 AUDIO
    TITLE "5:cjc172_2860"
    INDEX 01 00:12:61
  TRACK 12 AUDIO
    TITLE "0:"
    INDEX 01 00:19:04
  TRACK 13 AUDIO
    TITLE "3:cjc172_2861"
    INDEX 01 00:19:49
  TRACK 14 AUDIO
    TITLE "0:"
    INDEX 01 00:20:54
  TRACK 15 AUDIO
    TITLE "4:cjc172_2862"
    INDEX 01 00:20:64
  TRACK 16 AUDIO
    TITLE "0:"
    INDEX 01 00:21:69
  TRACK 17 AUDIO
    TITLE "5:cjc172_2863"
    INDEX 01 00:22:02
  TRACK 18 AUDIO
    TITLE "0:"
    INDEX 01 00:29:65
  TRACK 19 AUDIO
    TITLE "3:cjc172_2864"
    INDEX 01 00:30:33
  TRACK 20 AUDIO
    TITLE "0:"
    INDEX 01 00:31:60
  TRACK 21 AUDIO
    TITLE "4:cjc172_2865"
    INDEX 01 00:31:68
  TRACK 22 AUDIO
    TITLE "0:"
    INDEX 01 00:33:18
  TRACK 23 AUDIO
    TITLE "5:cjc172_2866"
    INDEX 01 00:33:25
  TRACK 24 AUDIO
    TITLE "0:"
    INDEX 01 00:38:34
  TRACK 25 AUDIO
    TITLE "3:cjc172_2867"
    INDEX 01 00:39:04
  TRACK 26 AUDIO
    TITLE "0:"
    INDEX 01 00:40:39
  TRACK 27 AUDIO
    TITLE "4:cjc172_2868"
    INDEX 01 00:40:47
  TRACK 28 AUDIO
    TITLE "0:"
    INDEX 01 00:44:60
  TRACK 29 AUDIO
    TITLE "5:cjc172_2869"
    INDEX 01 00:44:64
  TRACK 30 AUDIO
    TITLE "0:"
    INDEX 01 00:50:75
  TRACK 31 AUDIO
    TITLE "3:cjc172_2870"
    INDEX 01 00:51:39
  TRACK 32 AUDIO
    TITLE "0:"
    INDEX 01 00:53:12
  TRACK 33 AUDIO
    TITLE "4:cjc172_2871"
    INDEX 01 00:53:22
  TRACK 34 AUDIO
    TITLE "0:"
    INDEX 01 00:54:67
  TRACK 35 AUDIO
    TITLE "5:cjc172_2872"
    INDEX 01 00:54:73
  TRACK 36 AUDIO
    TITLE "0:"
    INDEX 01 01:01:20
  TRACK 37 AUDIO
    TITLE "3:cjc172_2873"
    INDEX 01 01:01:69
  TRACK 38 AUDIO
    TITLE "0:"
    INDEX 01 01:02:64
  TRACK 39 AUDIO
    TITLE "4:cjc172_2874"
    INDEX 01 01:02:72
  TRACK 40 AUDIO
    TITLE "0:"
    INDEX 01 01:03:66
  TRACK 41 AUDIO
    TITLE "5:cjc172_2875"
    INDEX 01 01:03:72
  TRACK 42 AUDIO
    TITLE "0:"
    INDEX 01 01:10:25
  TRACK 43 AUDIO
    TITLE "3:cjc172_2876"
    INDEX 01 01:10:72
  TRACK 44 AUDIO
    TITLE "0:"
    INDEX 01 01:12:41
  TRACK 45 AUDIO
    TITLE "4:cjc172_2877"
    INDEX 01 01:12:47
  TRACK 46 AUDIO
    TITLE "0:"
    INDEX 01 01:13:74
  TRACK 47 AUDIO
    TITLE "5:cjc172_2878"
    INDEX 01 01:14:07
  TRACK 48 AUDIO
    TITLE "0:"
    INDEX 01 01:22:40
  TRACK 49 AUDIO
    TITLE "3:cjc172_2879"
    INDEX 01 01:23:10
  TRACK 50 AUDIO
    TITLE "0:"
    INDEX 01 01:24:33
  TRACK 51 AUDIO
    TITLE "4:cjc172_2880"
    INDEX 01 01:24:40
  TRACK 52 AUDIO
    TITLE "0:"
    INDEX 01 01:26:30
  TRACK 53 AUDIO
    TITLE "5:cjc172_2881"
    INDEX 01 01:26:37
  TRACK 54 AUDIO
    TITLE "0:"
    INDEX 01 01:33:12
  TRACK 55 AUDIO
    TITLE "3:cjc172_2882"
    INDEX 01 01:33:57
  TRACK 56 AUDIO
    TITLE "0:"
    INDEX 01 01:35:13
  TRACK 57 AUDIO
    TITLE "4:cjc172_2883"
    INDEX 01 01:35:21
  TRACK 58 AUDIO
    TITLE "0:"
    INDEX 01 01:37:55
  TRACK 59 AUDIO
    TITLE "5:cjc172_2884"
    INDEX 01 01:37:63
  TRACK 60 AUDIO
    TITLE "0:"
    INDEX 01 01:44:49
